<svg width="24" height="25" viewBox="0 0 24 25" fill="none" xmlns="http://www.w3.org/2000/svg">
<g clip-path="url(#clip0_863_4273)">
<path d="M17.625 6.5C17.4 6.5 17.25 6.35 17.25 6.125V5.375C17.25 5.15 17.4 5 17.625 5H18C18.45 5 18.75 4.7 18.75 4.25C18.75 3.8 18.45 3.5 18 3.5H17.25C16.8 3.5 16.5 3.8 16.5 4.25C16.5 4.475 16.35 4.625 16.125 4.625C15.9 4.625 15.75 4.475 15.75 4.25C15.75 3.425 16.425 2.75 17.25 2.75H18C18.825 2.75 19.5 3.425 19.5 4.25C19.5 5.075 18.825 5.75 18 5.75V6.125C18 6.35 17.85 6.5 17.625 6.5Z" fill="white"/>
<path d="M17.625 8C17.8321 8 18 7.83211 18 7.625C18 7.41789 17.8321 7.25 17.625 7.25C17.4179 7.25 17.25 7.41789 17.25 7.625C17.25 7.83211 17.4179 8 17.625 8Z" fill="white"/>
<path d="M6 14.75C4.875 14.75 3.975 13.925 3.75 12.875H0.375C0.15 12.875 0 12.725 0 12.5V2.375C0 1.325 0.825 0.5 1.875 0.5H12C12.225 0.5 12.375 0.65 12.375 0.875V4.625C12.375 4.85 12.225 5 12 5C11.175 5 10.5 5.675 10.5 6.5C10.5 7.325 11.175 8 12 8C12.225 8 12.375 8.15 12.375 8.375V12.5C12.375 12.725 12.225 12.875 12 12.875H8.25C8.025 13.925 7.125 14.75 6 14.75ZM0.75 12.125H4.125C4.35 12.125 4.5 12.275 4.5 12.5C4.5 13.325 5.175 14 6 14C6.825 14 7.5 13.325 7.5 12.5C7.5 12.275 7.65 12.125 7.875 12.125H11.625V8.75C10.575 8.525 9.75 7.625 9.75 6.5C9.75 5.375 10.575 4.475 11.625 4.25V1.25H1.875C1.275 1.25 0.75 1.775 0.75 2.375V12.125Z" fill="white"/>
<path d="M22.125 24.5H12C11.775 24.5 11.625 24.35 11.625 24.125V20.375C11.625 20.15 11.775 20 12 20C12.825 20 13.5 19.325 13.5 18.5C13.5 17.675 12.825 17 12 17C11.775 17 11.625 16.85 11.625 16.625V12.5C11.625 12.275 11.775 12.125 12 12.125H15.75C15.9 11.075 16.875 10.25 18 10.25C19.125 10.25 20.025 11.075 20.25 12.125H23.625C23.85 12.125 24 12.275 24 12.5V22.625C24 23.675 23.175 24.5 22.125 24.5ZM12.375 23.75H22.125C22.725 23.75 23.25 23.225 23.25 22.625V12.875H19.875C19.65 12.875 19.5 12.725 19.5 12.5C19.5 11.675 18.825 11 18 11C17.175 11 16.5 11.675 16.5 12.5C16.5 12.725 16.35 12.875 16.125 12.875H12.375V16.25C13.425 16.4 14.25 17.375 14.25 18.5C14.25 19.625 13.425 20.525 12.375 20.75V23.75Z" fill="white"/>
<path d="M12.375 16.25V12.5C12.375 12.275 12.225 12.125 12 12.125H7.875C7.65 12.125 7.5 12.275 7.5 12.5C7.5 13.325 6.825 14 6 14C5.175 14 4.5 13.325 4.5 12.5C4.5 12.275 4.35 12.125 4.125 12.125H0.375C0.15 12.125 0 12.275 0 12.5V22.625C0 23.675 0.825 24.5 1.875 24.5H12C12.225 24.5 12.375 24.35 12.375 24.125V20.75C13.425 20.6 14.25 19.625 14.25 18.5C14.25 17.375 13.425 16.475 12.375 16.25Z" fill="white"/>
</g>
<defs>
<clipPath id="clip0_863_4273">
<rect width="24" height="24" fill="white" transform="translate(0 0.5)"/>
</clipPath>
</defs>
</svg>
