<svg width="24" height="24" viewBox="0 0 24 24" fill="none" xmlns="http://www.w3.org/2000/svg">
<path d="M3.59137 5.66058C3.4177 5.31324 2.99531 5.17238 2.64801 5.34614L1.14178 6.09924C0.794434 6.27291 0.653669 6.69525 0.82734 7.0426C1.00157 7.39106 1.42453 7.53014 1.7707 7.35703L3.27693 6.60394C3.62423 6.43022 3.765 6.00788 3.59137 5.66058ZM1.14173 1.33219L2.64797 2.08533C2.99479 2.25872 3.41737 2.1188 3.59132 1.77089C3.765 1.42355 3.62423 1.00121 3.27689 0.827533L1.77065 0.0743929C1.42331 -0.099279 1.00101 0.0415335 0.827294 0.38883C0.653669 0.736174 0.794434 1.15852 1.14173 1.33219ZM20.723 6.60389L22.2293 7.35699C22.5762 7.53042 22.9987 7.39036 23.1726 7.04255C23.3463 6.69521 23.2055 6.27286 22.8582 6.09919L21.3519 5.3461C21.0047 5.17256 20.5823 5.31319 20.4086 5.66053C20.2349 6.00788 20.3757 6.43027 20.723 6.60389ZM21.3519 2.08533L22.8582 1.33219C23.2055 1.15852 23.3463 0.736174 23.1726 0.38883C22.999 0.0414867 22.5766 -0.099279 22.2293 0.0743929L20.723 0.827533C20.3757 1.00121 20.2349 1.42355 20.4086 1.77089C20.5829 2.11955 21.0059 2.2583 21.3519 2.08533Z" fill="white"/>
<path d="M4.88179 14.9287C6.29138 14.6992 7.24797 13.3704 7.0184 11.9607C6.78883 10.5511 5.46003 9.59452 4.05045 9.82408C2.64086 10.0536 1.68427 11.3825 1.91384 12.7921C2.14341 14.2017 3.47221 15.1583 4.88179 14.9287Z" fill="white"/>
<path d="M19.943 14.9312C21.3525 14.7016 22.3091 13.3728 22.0796 11.9632C21.85 10.5536 20.5212 9.59696 19.1116 9.82652C17.702 10.0561 16.7454 11.3849 16.975 12.7945C17.2046 14.2041 18.5334 15.1607 19.943 14.9312Z" fill="white"/>
<path d="M8.3978 16.4405L8.43352 16.4262C8.34807 16.2568 8.27483 16.0815 8.21438 15.9016C8.0189 15.7249 7.79354 15.5845 7.54884 15.4868L7.15223 15.3281C6.44302 15.9739 5.50139 16.3685 4.46878 16.3685C3.43608 16.3685 2.49375 15.9743 1.78425 15.3285L1.38872 15.4868C0.545109 15.8242 0 16.6294 0 17.5382V23.2966C0 23.685 0.314812 23.9998 0.703125 23.9998H6.24595C6.16582 23.774 6.12492 23.5362 6.12502 23.2966V19.7976C6.12502 18.3104 7.01714 16.9927 8.3978 16.4405ZM22.6113 15.4868L22.2157 15.3286C21.5063 15.9743 20.5639 16.3685 19.5312 16.3685C18.4986 16.3685 17.557 15.974 16.8478 15.3282L16.4512 15.4868C16.2065 15.5845 15.9811 15.7249 15.7856 15.9016C15.7251 16.0815 15.6519 16.2568 15.5665 16.4262L15.6024 16.4406C16.9829 16.9926 17.875 18.3104 17.875 19.7976V23.2966C17.8751 23.5362 17.8342 23.774 17.7541 23.9998H23.2969C23.6852 23.9998 24 23.685 24 23.2966V17.5382C24 16.6294 23.4549 15.8242 22.6113 15.4868Z" fill="white"/>
<path d="M15.0801 17.7466L14.6846 17.5884C13.9751 18.2341 13.0327 18.6283 12 18.6283C10.9673 18.6283 10.025 18.2341 9.3155 17.5884L8.91997 17.7466C8.07636 18.084 7.53125 18.8892 7.53125 19.7981V23.2971C7.53125 23.6854 7.84606 24.0002 8.23438 24.0002H15.7656C16.154 24.0002 16.4688 23.6854 16.4688 23.2971V19.798C16.4688 18.8892 15.9237 18.084 15.0801 17.7466Z" fill="white"/>
<path d="M12.4119 17.189C13.8215 16.9594 14.7781 15.6306 14.5486 14.221C14.319 12.8114 12.9902 11.8548 11.5806 12.0843C10.171 12.3139 9.21442 13.6427 9.44399 15.0523C9.67356 16.4619 11.0024 17.4186 12.4119 17.189Z" fill="white"/>
<path d="M11.5028 10.2364C11.6347 10.3682 11.8136 10.4423 12 10.4423C12.1865 10.4423 12.3654 10.3682 12.4973 10.2364L17.5047 5.22854C18.6992 4.03402 18.6992 2.09044 17.5047 0.895928C16.3102 -0.298588 14.3667 -0.298588 13.1723 0.895787L12 2.06766L10.8279 0.895881C9.63342 -0.298635 7.6898 -0.298588 6.49542 0.895787C5.29659 2.09415 5.29861 4.03224 6.49533 5.22854L11.5028 10.2364Z" fill="white"/>
</svg>
