<svg width="24" height="24" viewBox="0 0 24 24" fill="none" xmlns="http://www.w3.org/2000/svg">
<path d="M12 13.4199C10.21 13.4199 8.75 14.8799 8.75 16.6699V22.4199H15.25V16.6699C15.25 14.8799 13.79 13.4199 12 13.4199Z" fill="white"/>
<path d="M21.15 7.15996L14.15 2.25996C12.86 1.35996 11.13 1.35996 9.85 2.25996L2.85 7.15996C1.85 7.85996 1.25 9.00996 1.25 10.23V18.67C1.25 20.74 2.93 22.42 5 22.42H7.25V16.67C7.25 14.05 9.38 11.92 12 11.92C14.62 11.92 16.75 14.05 16.75 16.67V22.42H19C21.07 22.42 22.75 20.74 22.75 18.67V10.23C22.75 9.00996 22.15 7.85996 21.15 7.15996Z" fill="white"/>
</svg>
