<svg width="24" height="25" viewBox="0 0 24 25" fill="none" xmlns="http://www.w3.org/2000/svg">
<g clip-path="url(#clip0_863_4267)">
<path d="M8.67765 5.7989C8.65049 5.87504 8.60204 5.94177 8.53804 5.99116C8.47404 6.04054 8.3972 6.07049 8.31666 6.07745C8.23598 6.08621 8.15451 6.07083 8.08259 6.03325C8.01066 5.99566 7.9515 5.93758 7.91261 5.86635C7.22363 4.65167 5.81891 3.48934 4.16514 3.48934C4.06249 3.48934 3.95878 3.49409 3.85445 3.50338C3.30219 3.55098 2.76473 3.707 2.27282 3.96251C1.78092 4.21802 1.34421 4.568 0.987684 4.99244C0.631216 5.4169 0.361924 5.90748 0.195208 6.4361C0.0284931 6.96473 -0.032374 7.52103 0.0160886 8.0732C0.447792 13.0083 7.52255 17.1776 9.23796 18.1191L9.22356 18.0976C9.19363 18.0554 9.16355 18.0131 9.13363 17.968C9.05942 17.8608 8.98459 17.7536 8.91039 17.6429C8.87144 17.5848 8.83265 17.5243 8.79328 17.4648C8.72916 17.3669 8.66672 17.269 8.60075 17.1692C8.55869 17.1013 8.51642 17.0312 8.47414 16.962C8.41541 16.867 8.35646 16.7719 8.29851 16.6748C8.25629 16.601 8.21153 16.5253 8.16805 16.4507C8.11316 16.3553 8.05833 16.2602 8.00434 16.1635C7.96212 16.0846 7.91979 16.0052 7.87757 15.9254C7.82592 15.8295 7.77525 15.7331 7.72558 15.6362C7.68336 15.5543 7.64114 15.4715 7.60192 15.3884C7.55411 15.2912 7.5073 15.1941 7.46133 15.0959C7.42154 15.0113 7.38359 14.927 7.34522 14.84C7.303 14.7411 7.26078 14.6423 7.21846 14.5444C7.18253 14.4579 7.14748 14.371 7.11333 14.2838C7.07375 14.1834 7.03628 14.0822 6.99891 13.9808C6.96698 13.893 6.93564 13.8051 6.90576 13.7165C6.87145 13.6145 6.83866 13.5121 6.80739 13.4091C6.77955 13.3209 6.75309 13.2322 6.72802 13.1431C6.69878 13.0388 6.6726 12.9341 6.64643 12.829C6.62495 12.7411 6.60415 12.6529 6.58352 12.5647C6.55977 12.4579 6.5413 12.3507 6.52108 12.2433C6.50541 12.1565 6.48847 12.0695 6.47549 11.9825C6.4586 11.8722 6.44725 11.7625 6.43327 11.6523C6.42355 11.5679 6.41263 11.4834 6.40582 11.3989C6.39653 11.2832 6.39347 11.168 6.38973 11.0523C6.38725 10.9734 6.3817 10.8944 6.3817 10.8155C6.3817 10.6889 6.38893 10.5596 6.39611 10.4322C6.39944 10.3659 6.39944 10.2995 6.40498 10.2337C6.42107 10.0404 6.44498 9.84778 6.47881 9.65604C6.96983 6.90412 9.59362 5.06706 12.3474 5.54721C14.1694 5.86819 15.4566 7.28242 16.0697 8.74424C16.1895 8.61457 16.3175 8.49092 16.4497 8.37091C16.4919 8.33296 16.534 8.29834 16.5762 8.26166C16.6447 8.20287 16.7114 8.1425 16.7828 8.08682C16.864 7.59653 16.884 7.09833 16.8422 6.60314C16.6343 4.28081 14.5874 2.56392 12.2643 2.76331C10.478 2.92079 9.17548 4.40135 8.67765 5.7989Z" fill="white"/>
<path d="M10.2664 18.1038C11.3099 19.4967 12.4679 20.8001 13.7284 22.0003C15.2189 21.3568 23.0528 17.7521 23.9373 12.7361C24.3367 10.4406 22.8063 8.25349 20.5129 7.842C19.9684 7.76043 19.4129 7.79101 18.8805 7.93186C18.3482 8.07271 17.8503 8.32085 17.4173 8.66107C17.1916 8.82653 16.9798 9.01013 16.784 9.21004C16.5922 9.40581 16.4176 9.61769 16.262 9.84335C16.2162 9.91007 16.1522 9.96221 16.0776 9.99355C16.003 10.0249 15.921 10.0341 15.8413 10.02C15.7615 10.0061 15.6875 9.9695 15.628 9.91467C15.5684 9.85985 15.5259 9.78907 15.5054 9.71077C15.1323 8.27512 13.9652 6.6878 12.1975 6.37521C9.90238 5.97322 7.7151 7.50576 7.30894 9.80028C6.80225 12.6751 8.62358 15.88 10.2423 18.0631C10.2512 18.0761 10.2592 18.0897 10.2664 18.1038ZM3.38667 17.1285C3.34623 17.0904 3.29896 17.0603 3.24735 17.0398C3.19647 17.0187 3.14192 17.0078 3.08683 17.0078C3.03174 17.0078 2.97719 17.0187 2.92631 17.0398C2.87393 17.0588 2.82636 17.0891 2.78696 17.1284C2.74757 17.1678 2.71731 17.2154 2.69832 17.2678C2.66546 17.3446 2.65633 17.4294 2.67214 17.5115C2.68794 17.5935 2.72794 17.6689 2.78699 17.7279C2.84605 17.7871 2.92148 17.8271 3.00353 17.8429C3.08559 17.8587 3.1705 17.8496 3.24729 17.8166C3.29838 17.7951 3.34548 17.7651 3.38662 17.7279C3.44568 17.6689 3.48568 17.5935 3.50149 17.5114C3.51729 17.4294 3.50816 17.3445 3.47528 17.2677C3.45487 17.2161 3.42478 17.1688 3.38662 17.1284L3.38667 17.1285ZM22.9305 3.49546C23.0426 3.49652 23.1509 3.4524 23.2302 3.37302C23.3096 3.29365 23.3537 3.18562 23.3527 3.07326C23.3511 2.96149 23.3073 2.85443 23.2302 2.7735C23.2094 2.75441 23.1868 2.73744 23.1626 2.72283C23.141 2.70618 23.1168 2.69333 23.0909 2.68483C23.0656 2.67194 23.0384 2.66338 23.0103 2.6595C22.9563 2.64672 22.9 2.64672 22.846 2.6595C22.8196 2.66404 22.7938 2.67269 22.7699 2.68483C22.7429 2.69414 22.7173 2.70692 22.6936 2.72283C22.6716 2.7385 22.6506 2.75542 22.6306 2.7735C22.5532 2.85427 22.5095 2.96144 22.5083 3.07326C22.5077 3.12885 22.5182 3.184 22.5392 3.23548C22.5602 3.28696 22.5912 3.33372 22.6306 3.37302C22.6699 3.41231 22.7167 3.44336 22.7682 3.46438C22.8197 3.4854 22.8749 3.49597 22.9305 3.49546ZM20.9417 5.90625C21.0008 5.96582 21.0763 6.00645 21.1585 6.02296C21.2407 6.03948 21.326 6.03112 21.4035 5.99896C21.481 5.9668 21.5471 5.91229 21.5935 5.84239C21.6399 5.77249 21.6644 5.69036 21.6639 5.60648C21.6623 5.49471 21.6185 5.38765 21.5414 5.30672C21.5202 5.28983 21.4992 5.27294 21.4738 5.25605C21.4522 5.2394 21.428 5.22655 21.402 5.21805C21.3768 5.20516 21.3495 5.1966 21.3215 5.19272C21.2407 5.17538 21.1565 5.18426 21.0811 5.21805C21.0294 5.23851 20.9821 5.2686 20.9417 5.30672C20.8644 5.38749 20.8207 5.49466 20.8195 5.60648C20.8189 5.66207 20.8294 5.71722 20.8504 5.7687C20.8714 5.82018 20.9024 5.86694 20.9417 5.90625ZM6.7643 23.4615C6.72386 23.4235 6.67659 23.3934 6.62497 23.3729C6.54806 23.3405 6.46329 23.3317 6.38136 23.3475C6.29943 23.3632 6.22401 23.4029 6.16461 23.4615C6.12741 23.5026 6.09743 23.5497 6.07595 23.6008C6.05433 23.6516 6.0429 23.7061 6.04233 23.7612C6.0408 23.8166 6.05232 23.8715 6.07595 23.9216C6.09759 23.9728 6.12746 24.0198 6.16461 24.0609C6.24468 24.1394 6.35233 24.1834 6.46446 24.1834C6.57658 24.1834 6.68423 24.1394 6.7643 24.0609C6.80139 24.0198 6.83136 23.9727 6.85296 23.9216C6.87519 23.8711 6.88667 23.8165 6.88667 23.7612C6.88667 23.706 6.87519 23.6514 6.85296 23.6008C6.83148 23.5497 6.80151 23.5026 6.7643 23.4615ZM3.08691 19.9614H2.66471V19.5392C2.66471 19.4272 2.62022 19.3198 2.54104 19.2407C2.46187 19.1615 2.35448 19.117 2.2425 19.117C2.13053 19.117 2.02314 19.1615 1.94396 19.2407C1.86478 19.3198 1.8203 19.4272 1.8203 19.5392V19.9614H1.39809C1.16472 19.9614 0.975891 20.1504 0.975891 20.3836C0.975891 20.6168 1.16472 20.8058 1.39809 20.8058H1.8203V21.228C1.8203 21.34 1.86478 21.4474 1.94396 21.5266C2.02314 21.6057 2.13053 21.6502 2.2425 21.6502C2.35448 21.6502 2.46187 21.6057 2.54104 21.5266C2.62022 21.4474 2.66471 21.34 2.66471 21.228V20.8058H3.08691C3.19888 20.8058 3.30627 20.7613 3.38545 20.6821C3.46463 20.603 3.50911 20.4956 3.50911 20.3836C3.50911 20.2716 3.46463 20.1642 3.38545 20.0851C3.30627 20.0059 3.19888 19.9614 3.08691 19.9614ZM18.7084 2.22885H19.1306V2.65106C19.1306 2.76303 19.1751 2.87042 19.2543 2.9496C19.3335 3.02878 19.4409 3.07326 19.5528 3.07326C19.6648 3.07326 19.7722 3.02878 19.8514 2.9496C19.9306 2.87042 19.975 2.76303 19.975 2.65106V2.22885H20.3973C20.5092 2.22885 20.6166 2.18437 20.6958 2.10519C20.775 2.02601 20.8195 1.91862 20.8195 1.80665C20.8195 1.69467 20.775 1.58729 20.6958 1.50811C20.6166 1.42893 20.5092 1.38445 20.3973 1.38445H19.975V0.962243C19.975 0.850267 19.9306 0.742878 19.8514 0.6637C19.7722 0.584521 19.6648 0.540039 19.5528 0.540039C19.4409 0.540039 19.3335 0.584521 19.2543 0.6637C19.1751 0.742878 19.1306 0.850267 19.1306 0.962243V1.38445H18.7084C18.4751 1.38445 18.2862 1.57349 18.2862 1.80665C18.2862 2.03981 18.4751 2.22885 18.7084 2.22885Z" fill="white"/>
</g>
<defs>
<clipPath id="clip0_863_4267">
<rect width="24" height="24" fill="white" transform="translate(0 0.5)"/>
</clipPath>
</defs>
</svg>
