<svg width="24" height="25" viewBox="0 0 24 25" fill="none" xmlns="http://www.w3.org/2000/svg">
<g clip-path="url(#clip0_863_4284)">
<path d="M12 16.2158C8.6488 16.2158 5.92236 18.9423 5.92236 22.2934C5.92236 22.4874 5.93188 22.679 5.94983 22.8682C7.76605 23.9322 9.83914 24.5002 12 24.5002C14.1608 24.5002 16.2339 23.9322 18.0501 22.8682C18.0681 22.6789 18.0776 22.4874 18.0776 22.2934C18.0776 18.9423 15.3512 16.2158 12 16.2158Z" fill="white"/>
<path d="M20.4853 4.01469C18.2188 1.74828 15.2055 0.5 12 0.5C8.79455 0.5 5.78119 1.74823 3.51469 4.01469C1.24828 6.28119 0 9.29455 0 12.5C0 15.7053 1.24823 18.7188 3.51469 20.9853C3.83505 21.3055 4.17304 21.6075 4.52709 21.89C4.68441 18.9434 6.55387 16.4443 9.15619 15.3713C7.72575 14.4387 6.77822 12.825 6.77822 10.9938C6.77822 8.11442 9.12066 5.77198 12 5.77198C14.8793 5.77198 17.2218 8.11442 17.2218 10.9938C17.2218 12.825 16.2743 14.4387 14.8438 15.3713C17.4461 16.4442 19.3156 18.9435 19.4729 21.89C19.8269 21.6075 20.1649 21.3054 20.4853 20.9853C22.7517 18.7188 24 15.7053 24 12.5C24 9.29455 22.7518 6.28119 20.4853 4.01469Z" fill="white"/>
<path d="M15.8155 10.9938C15.8155 8.88968 14.1039 7.17822 12 7.17822C9.89609 7.17822 8.18445 8.88986 8.18445 10.9938C8.18445 13.0976 9.89609 14.8093 12 14.8093C14.1039 14.8093 15.8155 13.0976 15.8155 10.9938Z" fill="white"/>
</g>
<defs>
<clipPath id="clip0_863_4284">
<rect width="24" height="24" fill="white" transform="translate(0 0.5)"/>
</clipPath>
</defs>
</svg>
